PathFileType	4	(X/Y/Z)	17_1_41_p0_0-535.trc
DataRate	CameraRate	NumFrames	NumMarkers	Units	OrigDataRate	OrigDataStartFrame	OrigNumFrames
59.0	59.0	6	27	m	59.0	0	536
Frame#	Time	RHip			RKnee			RAnkle			RBigToe			RSmallToe			RHeel			LHip			LKnee			LAnkle			LBigToe			LSmallToe			LHeel			Neck			Head			Nose			RShoulder			RElbow			RWrist			RThumb			RIndex			RPinky			LShoulder			LElbow			LWrist			LThumb			LIndex			LPinky			
		X1	Y1	Z1	X2	Y2	Z2	X3	Y3	Z3	X4	Y4	Z4	X5	Y5	Z5	X6	Y6	Z6	X7	Y7	Z7	X8	Y8	Z8	X9	Y9	Z9	X10	Y10	Z10	X11	Y11	Z11	X12	Y12	Z12	X13	Y13	Z13	X14	Y14	Z14	X15	Y15	Z15	X16	Y16	Z16	X17	Y17	Z17	X18	Y18	Z18	X19	Y19	Z19	X20	Y20	Z20	X21	Y21	Z21	X22	Y22	Z22	X23	Y23	Z23	X24	Y24	Z24	X25	Y25	Z25	X26	Y26	Z26	X27	Y27	Z27	
0	0.0	0.25498222993613584	0.42835462905373956	0.8840701820340379	0.23989909742512758	0.5450838100562267	1.2975532277439754	0.21959571610395182	0.6950415296334147	1.6989374940989435	0.2548701191914242	0.5319077726581205	1.7316925688980471	0.3099700641521766	0.5982663555000935	1.7521177753111583	0.19543002047448063	0.7485931289813548	1.7504169250539172	0.06784433965073737	0.39586824438866824	0.877995707615541	0.05007398576839282	0.5587286919954156	1.308741265585171	0.042682335608007625	0.6614149338872009	1.7026009473575172	0.06854178385980506	0.4648338555513691	1.7136581631378305	0.003182675548292647	0.5110136404922059	1.7303420419366737	0.05766671388706236	0.7295311378178028	1.756999177173431	0.16918725281918057	0.35220846117127247	0.292875969269761	0.206846295517941	0.281235305656015	0.05852106855503569	0.20350407405653786	0.2426012948311836	0.19011496774618397	0.3235000328509522	0.3815921468580492	0.40586619052935935	0.3462305446665203	0.38986085014069854	0.654637435948195	0.24321580247781252	0.2815199249782356	0.8434478936455816	0.1604412818576559	0.3236028948588562	0.9247188318918368	0.15977640475325094	0.32490647963425856	0.9410765919369265	0.17849910999421081	0.32756452027242483	0.9427061058123899	0.022967658466902865	0.35162471111187055	0.3902201458415133	-0.008164570725201626	0.36522027615717095	0.6472176113879213	0.11722024474628226	0.25988481465983876	0.8228227807487518	0.1807899989344887	0.2965679110310112	0.8795643022047905	0.18829501947346947	0.31456823710718373	0.9319754789771345	0.1608179571629455	0.3137424370201629	0.9272887957796873
1	0.01694915254237288	0.2613588457311618	0.44169553248904364	0.8901825733453709	0.23909642290331795	0.5456511267149942	1.30190796528524	0.21694748608959433	0.6799466285536415	1.6963417572779294	0.2549185872515241	0.5313522863685403	1.7311191165852562	0.30782518938034303	0.5839508255273775	1.7452545561333987	0.19270680045782998	0.7338515624043708	1.748581384642427	0.06216343354529677	0.4079584936689839	0.8851080329112899	0.04922978943445322	0.5594322097427089	1.3131184648417245	0.04355761359514265	0.6635877992703337	1.7088393385045662	0.06795994569354297	0.46640324037396524	1.7094747214238784	0.004109162258346051	0.5262290303049925	1.7333190962823222	0.06243763679340485	0.7326414868910864	1.7581213849434307	0.17086359977695284	0.36380399051767154	0.2929652411679594	0.2029277948730608	0.277760870939692	0.05847610182708888	0.20327509412366473	0.24251759630138175	0.187238349785322	0.323146084751058	0.3802522409925312	0.402274610531331	0.3432184668034544	0.3775540405170373	0.6422223761542334	0.24358056904536787	0.28140785932330536	0.8400688917397605	0.16722992634266226	0.3601280855559365	0.9295274943413684	0.16419300058910374	0.34960069206058064	0.9394744323340232	0.17278259600781978	0.339339107995996	0.9416432220859182	0.02309485600570616	0.3516100140438346	0.3903175855502191	-0.008133430309797705	0.36533100360369597	0.6471408945724126	0.1229508090892922	0.27252422885281957	0.825067923599154	0.1780922433883598	0.3237293130088143	0.8938376251662018	0.18531939469803504	0.3402790858400425	0.9394547690846352	0.16060448874095393	0.31432921920907403	0.9201315424234586
2	0.03389830508474576	0.25738058578334755	0.44044615456304526	0.8868589500929434	0.2391447695535345	0.5456008841978346	1.3019353709442518	0.21868828484628705	0.6952448896996255	1.7030970764064226	0.2549833162709059	0.5316089956109458	1.7314420233396042	0.3100897598131547	0.5977805140496901	1.751815582565814	0.19251544431226705	0.7335086709651875	1.7484316488319604	0.06179515181879498	0.4085020949572229	0.8815151484139996	0.04930907370295958	0.5594421213922	1.313266269096875	0.043558715594750164	0.6634522212790549	1.708928689424983	0.06851609414084023	0.46861520913394783	1.7151216974622392	0.0027914162830383863	0.5120951639304592	1.7268360286938345	0.06235215046565982	0.7323321539176539	1.758173295066148	0.17086631436118754	0.36377645478245985	0.2929739385213419	0.20686820107760545	0.2799339140118791	0.05549128335719476	0.20330741512802375	0.24249442900951987	0.18721476778886378	0.32312835327381817	0.3802699194056544	0.4022782059830564	0.3471989369543858	0.38021184464219665	0.6496964226738157	0.24305029593048344	0.2814952940028393	0.8433190157214506	0.16502767958578904	0.34828038756883767	0.9259709830041951	0.16402985529695296	0.34901079567945237	0.9389761464033833	0.1723242924861765	0.3397654428279445	0.938473635149407	0.029029942262062028	0.34053109804265475	0.3893871274684185	-0.007777298336718714	0.36533867837502537	0.6438449071138618	0.12263425485268174	0.27296155899535324	0.8217083877124955	0.17736029476548268	0.32162358702239396	0.8892712126836427	0.18471334089283842	0.3386252837082282	0.9345763307027273	0.16072018829942417	0.314915817639549	0.9201670678291219
3	0.05084745762711865	0.260994892718777	0.44224959915703566	0.886994908557375	0.23907627394409786	0.545628556940575	1.301875368875235	0.21870655829555777	0.6952277993430629	1.7030678018554273	0.2550315847672911	0.5314652135316226	1.7314193920124792	0.3101091405873378	0.5977235770631618	1.7518637183365775	0.19259669688500314	0.7337065060245013	1.748539482537954	0.06175591004211898	0.40862721968132376	0.8814600969148514	0.04931079068228999	0.5593170814775519	1.3131082692299447	0.04770152819986782	0.6658169967065549	1.709595543478626	0.07544389821092316	0.4535924474561949	1.7116961666099402	0.0028434877192257037	0.5119443707071761	1.7268048227838981	0.062209210514750445	0.732208137044174	1.7583254452872314	0.1708781798663985	0.3637900319406505	0.2929597120553296	0.20829216605976464	0.29049194507855935	0.054802538946734015	0.20333175953174104	0.24259808616898518	0.18396241507203523	0.32351251106468615	0.3815659908749433	0.4059068257405024	0.34718897241370034	0.380268555551284	0.6496294073415887	0.24338194880924463	0.28109738158793574	0.8398539903152566	0.16453013687509993	0.3469536262472256	0.922067575204408	0.16404287658511865	0.3492247827471458	0.9387633920037042	0.1722014807602572	0.3397300067743415	0.9383685571115816	0.02903507829041631	0.34068681570339726	0.38935060509246944	-0.007746784754500808	0.3652263391964763	0.6436493966254705	0.12216621743283049	0.2715506019172029	0.8172616039834191	0.1768117894139925	0.32032490320789164	0.8850020701733241	0.18428002446452338	0.33969744224425485	0.9313989073431695	0.1607506344086428	0.31478928600669664	0.9200893903044877
4	0.06779661016949153	0.2573604544145575	0.44047466752507125	0.886749880294142	0.23911063985966402	0.5457068258500519	1.3018481300771343	0.21700806317137702	0.6798228890020857	1.6963125657231162	0.25931604471288716	0.5331518657133617	1.7316664624951812	0.3101576121821485	0.5976792279263269	1.7517849665331666	0.18713950208056238	0.7182217103930068	1.7462522785961994	0.06181505242694976	0.4086436188398247	0.8813810598629445	0.05073114085353201	0.5610646784436524	1.3141957238103337	0.04360528356211975	0.6633184851262299	1.7087129802275771	0.07542638136253325	0.4536321359714399	1.711577916287232	0.0028585493333555	0.511962145718085	1.7267428111389669	0.06234479419532996	0.7325007023073669	1.7583240278333803	0.17090149851569553	0.3636465607801584	0.29292738861483014	0.20832131954390073	0.2905444973036325	0.05480484156851041	0.2033686895704596	0.2426447977958259	0.18391037773827285	0.3232694017452426	0.3801828774660214	0.4023784275561481	0.3471939856410503	0.3800910151333984	0.6497013679692275	0.24338608968140846	0.28106881314877624	0.8398081611943866	0.16513430017193667	0.34866177543839905	0.9260669976020133	0.164599767418618	0.3491998730460746	0.9344997802501341	0.17206004655024718	0.33971649721828157	0.9380698977257451	0.0290630595385213	0.34050259645797	0.38929834993106327	-0.007746598931773411	0.3651106597727416	0.6434972378055892	0.11655074078173366	0.2824738179579755	0.8200387886189635	0.18089394500112527	0.3243181119993113	0.8895272996202191	0.18439179826357924	0.3400230104454077	0.9315088962729049	0.1606030524913232	0.31475889293593323	0.9201935344455686
5	0.0847457627118644	0.2573410997162795	0.4405518763653959	0.8867306266627742	0.2412024677012699	0.5591405982619885	1.3063826530149256	0.21793011058520562	0.6792416593001602	1.6920867956837615	0.2549605383093301	0.5314492164017739	1.7312852083706918	0.30785433359784564	0.5839988074892817	1.7452888558012603	0.19345856205755613	0.7184616174888089	1.746493392171594	0.06175591727175565	0.40880888624411155	0.8814455197541735	0.05017047900533419	0.5589360081736251	1.308992751922321	0.04361642566997771	0.663477896871203	1.70894030125755	0.0754607440293718	0.453738437111151	1.7115925305323036	0.0034354687731804685	0.5108925410490393	1.7301431374024048	0.06234276359886093	0.7318166609432144	1.7580779549248677	0.17479363594907116	0.3652865591325946	0.29273603590229236	0.20831367389570737	0.2905607130657392	0.054745759838457454	0.20337396117292156	0.2425254571400785	0.18385136497196367	0.32330534879108147	0.38017382787348325	0.40239197798088	0.3471084443935761	0.37817750155984603	0.6490517867936332	0.24326456813052263	0.281195359787721	0.8397720078009397	0.16209253380144267	0.33622726176911616	0.9159655637409411	0.16200529919877713	0.33824109154426574	0.9285103332558756	0.1718915823746178	0.33991534743639035	0.938115021357665	0.02322749708604076	0.35169490349575744	0.39026049409892577	-0.007783917983516395	0.36512557242776994	0.6435381941195617	0.11092682664701861	0.2698083669254435	0.8209979211341383	0.18254757239144948	0.30829601203123236	0.8816261007513104	0.18423056115131564	0.33959133231850613	0.9313157755168603	0.16012102653299307	0.31554919111938634	0.9167575010881515
